<svg xmlns="http://www.w3.org/2000/svg" viewBox="0 0 190 60.522"><defs><style>.a{fill:#f19800;}.a,.b{fill-rule:evenodd;}.b{fill:#78086e;}</style></defs><g transform="translate(-98.754 -249.1)"><g transform="translate(149.81 293.816)"><path d="M407.247,524.224c0,1.621-2.7,2.381-3.985,2.719a2.293,2.293,0,0,0-.084.76c0,.422.2.861.675.861a3.183,3.183,0,0,0,2.06-1.114.335.335,0,0,1,.321.372,4.058,4.058,0,0,1-3.445,1.891,1.641,1.641,0,0,1-1.689-1.824,5.507,5.507,0,0,1,2.128-4.036,4.039,4.039,0,0,1,2.482-.912A1.41,1.41,0,0,1,407.247,524.224Zm-2.769-.169a5.527,5.527,0,0,0-1.1,2.178,3.173,3.173,0,0,0,1.5-.895,2.353,2.353,0,0,0,.574-1.334c0-.169-.118-.372-.3-.372A1.087,1.087,0,0,0,404.477,524.055Zm2.094-4.56c.2-.338.372-.422.523-.405a1.2,1.2,0,0,1,.574.287c.253.253.371.422.371.591a.953.953,0,0,1-.371.54l-2.364,1.925a.311.311,0,0,1-.372-.287Z" transform="translate(-401.1 -518.212)"/><path d="M465.946,535.733l-1.469,4.087c-.084.22-.084.371.1.371a4.267,4.267,0,0,0,1.672-1.216.309.309,0,0,1,.321.372,5.2,5.2,0,0,1-3.445,2.111.723.723,0,0,1-.726-.676,2.741,2.741,0,0,1,.169-.861L464,535.733h-1.165c-.152-.118-.051-.507.118-.608l1.368-.287,1.131-1.52a.949.949,0,0,1,.54-.118.73.73,0,0,1,.591.27l-.422,1.435h1.452c.253.2.085.709-.084.827Z" transform="translate(-452.048 -529.941)"/><path d="M495.143,525.754l.372-.743a.78.78,0,0,1,.422-.118,1.893,1.893,0,0,1,.591.1,1.081,1.081,0,0,1,.591.405c-.608,1.486-1.3,3.242-1.891,5-.068.2-.084.338.034.338a3.73,3.73,0,0,0,1.486-.979.317.317,0,0,1,.3.355,4.434,4.434,0,0,1-3.158,1.841.627.627,0,0,1-.608-.625,2.507,2.507,0,0,1,.169-.659l.473-1.216h-.068c-.929,1.232-2.449,2.482-3.6,2.482a1.012,1.012,0,0,1-.963-.979,7.28,7.28,0,0,1,2.364-4.2,4.406,4.406,0,0,1,2.82-1.351A1.209,1.209,0,0,1,495.143,525.754Zm-1.03.338c-.236,0-.523.135-1.064.827a7.174,7.174,0,0,0-1.57,3.445v.135c.017.152.1.253.22.253.355,0,1.216-.929,1.689-1.57a11.829,11.829,0,0,0,1.368-2.5C494.586,526.227,494.366,526.092,494.113,526.092Zm.625-2.432a1.374,1.374,0,0,0-1.351.777c-.1.068-.422.034-.49-.1a5.55,5.55,0,0,1,.642-1.368,1.077,1.077,0,0,1,.963-.439h.878c.625,0,.979-.1,1.233-.743a.514.514,0,0,1,.473.084,3.893,3.893,0,0,1-.524,1.351.937.937,0,0,1-.946.439Z" transform="translate(-474.406 -520.435)"/><path d="M545.649,544.213a4.919,4.919,0,0,1-1.469,3.344,3.791,3.791,0,0,1-2.685,1.1,2.106,2.106,0,0,1-2.3-2.2,5.038,5.038,0,0,1,1.655-3.563,3.633,3.633,0,0,1,2.466-1A2.175,2.175,0,0,1,545.649,544.213Zm-3.073-1a7.942,7.942,0,0,0-1.57,4.12c0,.388.186.642.49.642.388,0,.743-.371,1.165-1.064a8.939,8.939,0,0,0,1.2-3.648c0-.338-.1-.659-.439-.659C543.184,542.609,542.914,542.8,542.576,543.217Z" transform="translate(-515.878 -537.172)"/><path d="M606.2,523.829a7.58,7.58,0,0,1,.608-2.415l2.043-5.572c.152-.439.118-.608-.169-.794l-.372-.236a.3.3,0,0,1,.084-.372,12.925,12.925,0,0,1,2.9-.541c.118.017.152.068.152.152-.253.659-.49,1.233-.811,2.06l-1.807,4.677h.034c.743-1.013,1.908-2.128,3.006-2.128a1.5,1.5,0,0,1,1.57,1.6,4.717,4.717,0,0,1-1.25,3.073,5.6,5.6,0,0,1-4.188,2.094C606.859,525.4,606.2,524.792,606.2,523.829Zm4.863-4.239c-.405,0-1.25.608-2.043,1.807a5.356,5.356,0,0,0-1.03,2.651c0,.422.219.659.405.659.321,0,.777-.355,1.266-.929a8.068,8.068,0,0,0,1.841-3.6C611.5,519.777,611.283,519.591,611.063,519.591Z" transform="translate(-571.565 -513.9)"/><path d="M659.749,544.213a4.918,4.918,0,0,1-1.469,3.344,3.791,3.791,0,0,1-2.685,1.1,2.106,2.106,0,0,1-2.3-2.2,5.039,5.039,0,0,1,1.655-3.563,3.633,3.633,0,0,1,2.466-1A2.166,2.166,0,0,1,659.749,544.213Zm-3.057-1a7.943,7.943,0,0,0-1.57,4.12c0,.388.186.642.49.642.388,0,.743-.371,1.165-1.064a8.938,8.938,0,0,0,1.2-3.648c0-.338-.1-.659-.439-.659C657.284,542.609,657.014,542.8,656.693,543.217Z" transform="translate(-610.71 -537.172)"/><path d="M700.08,543l-.709,1.857h.034c.861-1.233,2.2-2.854,3.529-2.854a.813.813,0,0,1,.861.912,8.162,8.162,0,0,1-.675,1.942h.051c1.081-1.689,2.381-2.854,3.529-2.854a.991.991,0,0,1,1.047.963,3.785,3.785,0,0,1-.321,1.351c-.3.794-.692,1.706-1.165,2.837-.1.22-.068.355.068.355.287,0,.962-.608,1.4-1.081a.273.273,0,0,1,.321.3,4.2,4.2,0,0,1-3.327,2.043.694.694,0,0,1-.675-.608,2.771,2.771,0,0,1,.236-.861c.473-1.1.946-2.2,1.351-3.31a2.582,2.582,0,0,0,.2-.743.2.2,0,0,0-.219-.22c-.169,0-.608.3-1.148,1.013a23.43,23.43,0,0,0-2.4,4.374c-.118.287-.321.355-.642.355-.692,0-1.2-.169-1.1-.507.068-.186,1-2.6,1.638-4.272a2.266,2.266,0,0,0,.22-.743.224.224,0,0,0-.22-.22c-.2,0-.675.3-1.3,1.081a21.634,21.634,0,0,0-2.3,4.374c-.1.22-.253.287-.608.287-.675,0-1.182-.169-1.081-.507.068-.2,1.334-3.732,1.57-4.408.186-.54.118-.642-.118-.642-.54,0-1,.591-1.283.895a.335.335,0,0,1-.355-.3A3.093,3.093,0,0,1,699.489,542C700.249,542,700.249,542.574,700.08,543Z" transform="translate(-646.617 -537.255)"/><path d="M797.347,543.183c0,1.621-2.7,2.381-3.985,2.719a2.29,2.29,0,0,0-.084.76c0,.422.2.861.675.861a3.184,3.184,0,0,0,2.06-1.115.335.335,0,0,1,.321.371,4.058,4.058,0,0,1-3.445,1.891,1.641,1.641,0,0,1-1.689-1.824,5.507,5.507,0,0,1,2.128-4.036,4.04,4.04,0,0,1,2.482-.912A1.41,1.41,0,0,1,797.347,543.183Zm-2.769-.169a5.525,5.525,0,0,0-1.1,2.178,3.172,3.172,0,0,0,1.5-.895,2.356,2.356,0,0,0,.574-1.334c0-.169-.118-.371-.3-.371A1.088,1.088,0,0,0,794.577,543.014Z" transform="translate(-725.325 -537.172)"/><path d="M831.221,543.266a.785.785,0,0,1-.726.827.613.613,0,0,1-.371-.22c-.625-.726-.929-.895-1.25-.895a.423.423,0,0,0-.405.405,1.14,1.14,0,0,0,.405.709l.608.608a2.3,2.3,0,0,1,.811,1.6,2.344,2.344,0,0,1-.946,1.756,3,3,0,0,1-1.976.692c-.726,0-1.57-.439-1.57-1.216a.867.867,0,0,1,.777-.912c.169,0,.3.152.49.355.608.642.929.827,1.25.827a.522.522,0,0,0,.54-.456,1.288,1.288,0,0,0-.456-.811l-.523-.557a2.332,2.332,0,0,1-.777-1.6,2.393,2.393,0,0,1,.878-1.722,2.724,2.724,0,0,1,1.689-.659A1.424,1.424,0,0,1,831.221,543.266Z" transform="translate(-754.082 -537.255)"/><path d="M863.946,535.733l-1.469,4.087c-.084.22-.084.371.1.371a4.266,4.266,0,0,0,1.672-1.216.309.309,0,0,1,.321.372,5.2,5.2,0,0,1-3.445,2.111.723.723,0,0,1-.726-.676,2.738,2.738,0,0,1,.169-.861L862,535.733h-1.165c-.152-.118-.051-.507.118-.608l1.368-.287,1.131-1.52a.95.95,0,0,1,.54-.118.731.731,0,0,1,.591.27l-.422,1.435h1.452c.253.2.084.709-.084.827Z" transform="translate(-782.84 -529.941)"/><path d="M893.143,541.161l.372-.743a.78.78,0,0,1,.422-.118,1.891,1.891,0,0,1,.591.1,1.079,1.079,0,0,1,.591.405c-.608,1.486-1.3,3.242-1.891,5-.068.2-.085.338.034.338a3.729,3.729,0,0,0,1.486-.979.318.318,0,0,1,.3.355,4.434,4.434,0,0,1-3.158,1.841.627.627,0,0,1-.608-.625,2.508,2.508,0,0,1,.169-.659l.473-1.216h-.068c-.929,1.233-2.449,2.482-3.6,2.482a1.012,1.012,0,0,1-.963-.979,7.282,7.282,0,0,1,2.364-4.2,4.406,4.406,0,0,1,2.82-1.351A1.265,1.265,0,0,1,893.143,541.161Zm-1.047.338c-.237,0-.524.135-1.064.828a7.173,7.173,0,0,0-1.57,3.445v.135c.017.152.1.253.22.253.355,0,1.216-.929,1.689-1.571a11.821,11.821,0,0,0,1.368-2.5C892.569,541.634,892.349,541.5,892.1,541.5Z" transform="translate(-805.197 -535.842)"/><path d="M943.19,542.863c0,.895-.625,1.553-1.047,1.553-.321,0-.372-.321-.456-.726-.051-.27-.118-.372-.253-.372-.27,0-.675.642-1.1,1.368a33.292,33.292,0,0,0-1.655,3.7c-.1.22-.405.287-.76.287-.388,0-1.03-.118-.861-.625.456-1.452,1.047-3.107,1.486-4.475.1-.3.118-.507-.067-.507a2.9,2.9,0,0,0-1.317.963.317.317,0,0,1-.287-.371,3.288,3.288,0,0,1,2.482-1.756c.912,0,.946.709.675,1.52l-.574,1.672h.085A16.776,16.776,0,0,1,940.86,543c.49-.659.979-1.1,1.553-1.1C942.869,541.917,943.19,542.221,943.19,542.863Z" transform="translate(-846.396 -537.172)"/><path d="M999.943,541.161l.372-.743a.778.778,0,0,1,.422-.118,1.89,1.89,0,0,1,.591.1,1.079,1.079,0,0,1,.591.405c-.608,1.486-1.3,3.242-1.891,5-.068.2-.084.338.034.338a3.73,3.73,0,0,0,1.486-.979.318.318,0,0,1,.3.355,4.434,4.434,0,0,1-3.158,1.841.627.627,0,0,1-.608-.625,2.512,2.512,0,0,1,.169-.659l.473-1.216h-.068c-.929,1.233-2.449,2.482-3.6,2.482a1.012,1.012,0,0,1-.962-.979,7.28,7.28,0,0,1,2.364-4.2,4.4,4.4,0,0,1,2.82-1.351A1.208,1.208,0,0,1,999.943,541.161Zm-1.03.338c-.236,0-.524.135-1.064.828a7.174,7.174,0,0,0-1.571,3.445v.135c.017.152.1.253.22.253.355,0,1.216-.929,1.689-1.571a11.826,11.826,0,0,0,1.368-2.5C999.386,541.634,999.166,541.5,998.913,541.5Z" transform="translate(-893.962 -535.842)"/><path d="M1048.8,540.73a12.646,12.646,0,0,1,.861-1.148c.287-.1.743-.034.861.253-.135.456-.524,1.6-.962,3.073l-1.841,6.029c-.27.861-.068,1.03.524,1.081l.388.034a.4.4,0,0,1-.016.507,34.322,34.322,0,0,0-4.492.456.358.358,0,0,1-.017-.523l.524-.135c.76-.186.895-.405,1.182-1.334l1.553-4.88h-.034c-.608.878-1.773,2.584-3.614,2.584-.827,0-1.115-.912-1.115-1.469a5.658,5.658,0,0,1,1.385-3.31,5.019,5.019,0,0,1,3.766-1.993A1.165,1.165,0,0,1,1048.8,540.73Zm-1.233-.135c-.2,0-.827.27-1.756,1.807a8.3,8.3,0,0,0-1.283,3.056c0,.22.118.372.27.372a4.346,4.346,0,0,0,1.942-1.655,4.74,4.74,0,0,0,1.216-2.837C1047.953,540.882,1047.751,540.6,1047.565,540.6Z" transform="translate(-934.272 -535.208)"/><path d="M1095.761,542.576a1.262,1.262,0,0,1-.084.439l-1.57,3.833c-.118.287-.067.422.118.422.1,0,.287-.068.608-.338,1.317-1.115,2.448-3.428,3.158-4.914a1.274,1.274,0,0,1,.591-.118,1.746,1.746,0,0,1,1.115.355c-.608,1.553-1.25,3.107-1.807,4.661-.068.186-.118.439.085.439a3.9,3.9,0,0,0,1.435-1.03.321.321,0,0,1,.287.372,4.627,4.627,0,0,1-3.327,1.976.566.566,0,0,1-.541-.811l.878-2.246h-.034c-.844,1.182-2.583,3.056-3.833,3.056a.807.807,0,0,1-.862-.827,2.89,2.89,0,0,1,.237-.929l1.317-3.31c.084-.2.067-.405-.068-.405-.321,0-.962.608-1.4.963-.169-.067-.287-.152-.271-.371a4.909,4.909,0,0,1,3.259-1.874A.744.744,0,0,1,1095.761,542.576Z" transform="translate(-975.156 -537.172)"/><path d="M1144.7,530.214c-.068.135-.05.236.068.236a4.607,4.607,0,0,0,1.486-1,.305.305,0,0,1,.3.371,4.774,4.774,0,0,1-3.327,1.874.818.818,0,0,1-.726-.625,2.042,2.042,0,0,1,.186-.675l1.638-3.935c.051-.118.051-.219-.034-.219a4.455,4.455,0,0,0-1.4.895c-.186-.034-.321-.236-.253-.372a5.081,5.081,0,0,1,3.175-1.824.778.778,0,0,1,.726.692,3.024,3.024,0,0,1-.2.692Zm1.807-8.714a.831.831,0,0,1,.878.929,1.213,1.213,0,0,1-1.2,1.283.86.86,0,0,1-.929-.895A1.273,1.273,0,0,1,1146.5,521.5Z" transform="translate(-1017.302 -520.217)"/></g><rect width="135.127" height="0.422" transform="translate(148.679 290.895)"/><path d="M486.108,349.383a24.336,24.336,0,0,1,5.64-.743c3.394,0,4.83,1.081,4.306,3.259q-.405,1.57-.912,3.344c-.338,1.182-.608,2.229-.861,3.141-.237.912-.439,1.705-.675,2.769-.675.135-1.554.3-2.5.439a29.909,29.909,0,0,1-4.12.338,6.877,6.877,0,0,1-3.715-.827,2.632,2.632,0,0,1-1.115-2.972,4.181,4.181,0,0,1,1.993-2.719,11.646,11.646,0,0,1,2.533-1.047c1.25-.371,2.533-.642,3.766-1,1.2-.338,1.858-.811,1.976-1.385.186-.878-.523-1.25-2.077-1.25a13.524,13.524,0,0,0-2.719.3,13.984,13.984,0,0,0-2.449.709Zm51.116,2.06a5.4,5.4,0,0,0-2.162-.557,2.362,2.362,0,0,0-2.2.912c-.507.878.405,1.722.979,2.3a17.864,17.864,0,0,1,1.942,2.145,2.72,2.72,0,0,1,.371,2.246,3.86,3.86,0,0,1-1.908,2.482,7.424,7.424,0,0,1-3.9.963,15.063,15.063,0,0,1-3.951-.557h0l.9-2.465a7.735,7.735,0,0,0,2.854.676c.827,0,1.993-.372,2.2-1.3.1-.473-.338-1.2-1.3-2.162-1.3-1.3-2.753-2.364-2.077-4.441a3.658,3.658,0,0,1,1.858-2.229,7.8,7.8,0,0,1,3.614-.811,22.485,22.485,0,0,1,3.681.405Zm-84.906,4.965q-.329,1.191-.81,3.192c-.068.49-.2,1.165-.388,2.043h-3.6q.481-1.6,1.115-3.951.355-1.343.608-2.28h-.017c.473-1.925.963-3.833,1.435-5.927a17.944,17.944,0,0,1,5.2-.861,10.114,10.114,0,0,1,2.972.405l-.76,2.077a7.415,7.415,0,0,0-4.357.084C453.212,352.9,452.773,354.7,452.317,356.408Zm-32.355-7.464h3.648c-.912,3.04-1.5,5.167-1.807,6.434-.49,2.026-.405,4.255,2.263,4.255a7.919,7.919,0,0,0,2.6-.338c.422-1.469.777-2.955,1.165-4.408.321-1.233.878-3.208,1.537-5.927h3.6c-.439,1.435-.979,3.394-1.655,5.843l-.186.675h0c-.439,1.824-.895,3.732-1.334,5.708a32.525,32.525,0,0,1-3.614.591,25.389,25.389,0,0,1-2.769.169,6.926,6.926,0,0,1-3.6-.794,3.675,3.675,0,0,1-1.672-2.263,6.741,6.741,0,0,1,.152-3.428c.3-1.081.608-2.162.9-3.242C419.439,351.122,419.726,350.041,419.962,348.944Zm41.524.439a24.337,24.337,0,0,1,5.64-.743c3.394,0,4.83,1.081,4.306,3.259q-.405,1.57-.912,3.344c-.338,1.182-.608,2.229-.861,3.141-.236.912-.439,1.705-.675,2.769-.675.135-1.554.3-2.5.439a29.911,29.911,0,0,1-4.12.338,6.911,6.911,0,0,1-3.715-.827,2.631,2.631,0,0,1-1.115-2.972,4.182,4.182,0,0,1,1.993-2.719,11.647,11.647,0,0,1,2.533-1.047c1.25-.371,2.533-.642,3.766-1,1.2-.338,1.857-.811,1.976-1.385.186-.878-.523-1.25-2.077-1.25a13.523,13.523,0,0,0-2.719.3,13.981,13.981,0,0,0-2.449.709Zm4.678,9.507c.287-1.064.692-2.533,1.064-3.935a5.106,5.106,0,0,1-1.587.675c-.709.2-1.419.422-2.111.625-1,.3-2.347.827-2.6,1.925-.2.912.439,1.435,1.79,1.435A9.783,9.783,0,0,0,466.164,358.89Zm-29.315-9.507a24.336,24.336,0,0,1,5.64-.743c3.394,0,4.83,1.081,4.306,3.259q-.405,1.57-.912,3.344t-.861,3.141c-.236.912-.439,1.705-.675,2.769-.675.135-1.554.3-2.5.439a29.911,29.911,0,0,1-4.12.338,6.911,6.911,0,0,1-3.715-.827,2.609,2.609,0,0,1-1.115-2.972,4.181,4.181,0,0,1,1.993-2.719,11.646,11.646,0,0,1,2.533-1.047c1.25-.371,2.533-.642,3.766-1,1.2-.338,1.858-.811,1.976-1.385.186-.878-.523-1.25-2.077-1.25a13.523,13.523,0,0,0-2.719.3,13.983,13.983,0,0,0-2.449.709Zm4.678,9.507c.287-1.064.692-2.533,1.064-3.935a5.105,5.105,0,0,1-1.587.675c-.709.2-1.419.422-2.111.625-1,.3-2.347.827-2.6,1.925-.2.912.439,1.435,1.79,1.435A9.782,9.782,0,0,0,441.527,358.89Zm81.918,2.533a17.963,17.963,0,0,1-4.239.507,7.5,7.5,0,0,1-4.694-1.4c-1.2-.929-1.57-2.516-1.081-4.762a10,10,0,0,1,1.672-3.833,8.024,8.024,0,0,1,2.921-2.466,8.728,8.728,0,0,1,3.867-.844,5.146,5.146,0,0,1,4.036,1.4,4.286,4.286,0,0,1,.692,3.918c-.084.355-.371,1.283-.591,1.976h-9.1c-.017.034-.034.22-.051.3a4.191,4.191,0,0,0-.034.642,2.786,2.786,0,0,0,.54,1.672,3.249,3.249,0,0,0,2.685,1.047,10.337,10.337,0,0,0,1.858-.186c.625-.118,1.452-.321,2.465-.574Zm-.152-7.582a4.117,4.117,0,0,0,.1-.439,2.47,2.47,0,0,0-.236-1.976,2.288,2.288,0,0,0-1.841-.642,3.845,3.845,0,0,0-2.212.76,4.3,4.3,0,0,0-1.5,1.908c-.034.1-.135.287-.186.405h5.877ZM499.837,349.4a33.969,33.969,0,0,1,3.715-.591,26.239,26.239,0,0,1,2.82-.169,7.25,7.25,0,0,1,3.7.794,3.743,3.743,0,0,1,1.756,2.263,6.723,6.723,0,0,1-.068,3.462c-.76,3.512-3.208,6.653-6.974,6.772a11.38,11.38,0,0,1-4.424-.726l-1.587,6.164h-3.614Q497.413,359.718,499.837,349.4Zm3.056,1.891-1.807,7.3a5.493,5.493,0,0,0,3.158.929,3.558,3.558,0,0,0,2.01-.642,5.914,5.914,0,0,0,2.009-3.5c.507-2.077.253-4.576-2.584-4.576A9.509,9.509,0,0,0,502.893,351.291Zm-88.149-3.884A14.581,14.581,0,0,0,411.4,347a8.95,8.95,0,0,0-6.468,2.617,8.662,8.662,0,0,0-2.111,4.188c-.777,3.631,1.2,5.387,4.661,5.421a13.371,13.371,0,0,0,3.208-.439l1.638-6.265h3.833q-1.216,4.306-2.3,8.629a37.625,37.625,0,0,1-6.94.76c-5.488,0-9.169-2.347-7.886-8.274a11.3,11.3,0,0,1,3.732-6.451,13.75,13.75,0,0,1,8.68-2.888,24.677,24.677,0,0,1,4.289.371Zm76.041,11.483c.287-1.064.692-2.533,1.064-3.935a5.1,5.1,0,0,1-1.587.675c-.709.2-1.418.422-2.111.625-1,.3-2.347.827-2.6,1.925-.2.912.439,1.435,1.79,1.435A9.782,9.782,0,0,0,490.785,358.89Zm-13.847-2.482q-.329,1.191-.811,3.192c-.068.49-.2,1.165-.388,2.043h-3.6q.481-1.6,1.114-3.951c.236-.9.456-1.655.608-2.28h-.017c.473-1.925.962-3.833,1.435-5.927a17.944,17.944,0,0,1,5.2-.861,10.114,10.114,0,0,1,2.972.405l-.76,2.077a7.415,7.415,0,0,0-4.357.084C477.85,352.9,477.394,354.7,476.938,356.408Z" transform="translate(-249.364 -79.124)"/><path d="M768.194,275.359a6.446,6.446,0,0,1-3.31.726h0a3.16,3.16,0,0,1-2.094-.726h0a2.186,2.186,0,0,1-.27-.287,2.339,2.339,0,0,1-.219-.338h0l-.017-.034h0a3.371,3.371,0,0,1-.372-1.689c0-.135.017-.253.017-.388a3.136,3.136,0,0,1,.068-.388h0a8.419,8.419,0,0,1,.523-1.706c.051-.1.1-.2.152-.287s.1-.186.152-.287h0a6.087,6.087,0,0,1,2.28-2.161c.186-.1.371-.186.557-.27a3.486,3.486,0,0,1,.591-.2h0a8.224,8.224,0,0,1,1.216-.253,9.6,9.6,0,0,1,1.216-.068c.338,0,.76.034,1.25.084.608.068,1.148.169,1.756.287l-1.418,4.965c-.27.9-.507,1.824-.743,2.753-.051.2-.1.388-.135.557-.034.135-.084.338-.135.557h0a5.847,5.847,0,0,1-.675,1.739,1.534,1.534,0,0,1-.186.27,1.363,1.363,0,0,1-.2.236h0a4.021,4.021,0,0,1-1.216.929c-.084.034-.186.085-.27.118-.1.034-.186.068-.287.1h0a6.847,6.847,0,0,1-.929.2h0a.869.869,0,0,0-.186.034,10.175,10.175,0,0,1-1.267.084h-.017a13.265,13.265,0,0,1-1.4-.084c-.236-.034-.473-.068-.709-.118l-.709-.152h-.017L761,279.5h0l.422-1.182a6.109,6.109,0,0,0,.946.287c.169.034.338.084.49.1a9.33,9.33,0,0,0,1.553.135h0a4.044,4.044,0,0,0,1.858-.372,1.453,1.453,0,0,0,.27-.169,2.4,2.4,0,0,0,.253-.186h0a3.166,3.166,0,0,0,.743-.963,6.683,6.683,0,0,0,.557-1.469Zm-2.871-.338a5.388,5.388,0,0,0,3.225-1.115l.676-2.516.878-3.158c-.253-.051-.49-.084-.743-.118a8.177,8.177,0,0,0-.9-.051h0a4.762,4.762,0,0,0-.507.017,2.7,2.7,0,0,0-.506.051h0a3.9,3.9,0,0,0-.878.2,4.15,4.15,0,0,0-.794.338,4.865,4.865,0,0,0-2.5,3.462v.017c-.017.1-.034.22-.051.321h0a1.828,1.828,0,0,0-.017.3,2.6,2.6,0,0,0,.253,1.3l.017.034h0c.051.084.1.152.152.236a2.04,2.04,0,0,0,.186.2h0a2.637,2.637,0,0,0,1.5.473Z" transform="translate(-550.414 -14.877)"/><path d="M624.857,268.186l-.084.3h0l-.118.422-1.3,4.779a4.09,4.09,0,0,0,2.7,1.03,2.919,2.919,0,0,0,1.874-.591,5.23,5.23,0,0,0,1.537-2.4,4.48,4.48,0,0,0,.169-2.786,2.235,2.235,0,0,0-2.178-1.2,10.26,10.26,0,0,0-2.6.439m-.963-.963h0l.287-.068h0l.27-.051h0c.456-.1.912-.186,1.334-.253.3-.051.625-.084.962-.118s.692-.034,1.064-.034c1.5,0,2.9.557,3.242,2.178a6.546,6.546,0,0,1-2.837,6.4,4.507,4.507,0,0,1-2.212.523,5.839,5.839,0,0,1-2.989-.844l-1.182,4.475H620.5l1.013-3.462c.287-1,.557-1.976.811-2.9.253-.946.506-1.874.743-2.8.253-.946.49-1.908.743-2.9l.017-.084Z" transform="translate(-433.64 -14.628)"/><path d="M409.958,258.919a1.375,1.375,0,0,0,0-.642,2.066,2.066,0,0,0-.287-.625,8.657,8.657,0,0,0-.591-.726q-.355-.405-.861-.912h0l-.27-.27c-.084-.084-.169-.186-.253-.27-.9-.963-1.638-2.077-1.216-3.31a4.053,4.053,0,0,1,.456-.895h0a2.716,2.716,0,0,1,1-.861h0c.2-.1.405-.186.608-.27h0a3.745,3.745,0,0,1,.659-.186,6.522,6.522,0,0,1,1.418-.152c.338,0,.676.017,1.03.051a9.435,9.435,0,0,1,1,.152l.135.034-.439,1.233c-.068-.017-.135-.051-.2-.068h0a1.849,1.849,0,0,0-.287-.084h0a5.942,5.942,0,0,0-1.554-.2h0a2.983,2.983,0,0,0-.878.118h0a.4.4,0,0,1-.135.034h0a2.471,2.471,0,0,0-.642.3h0a1.762,1.762,0,0,0-.186.135c-.051.051-.118.1-.169.152a1.813,1.813,0,0,0-.523.946,1.467,1.467,0,0,0-.017.54,1.593,1.593,0,0,0,.2.507,6.767,6.767,0,0,0,.473.625h0c.2.236.456.507.76.827h0c.1.1.22.2.321.321l.3.3a13.88,13.88,0,0,1,1.165,1.334h0c.051.084.1.152.152.236h0a1.718,1.718,0,0,1,.118.253,2.416,2.416,0,0,1,.084,1.435,3.348,3.348,0,0,1-.54,1.25h0a3.125,3.125,0,0,1-.979.9,4.657,4.657,0,0,1-1.266.523,5.664,5.664,0,0,1-1.435.169,8.472,8.472,0,0,1-2.786-.557l-.118-.034.439-1.216a5.388,5.388,0,0,0,1.25.506,5.624,5.624,0,0,0,1.418.186A3.5,3.5,0,0,0,409,260.27a1.933,1.933,0,0,0,.625-.54,2.588,2.588,0,0,0,.338-.811" transform="translate(-253.866 -0.582)"/><path d="M520.1,266.9h0a4.69,4.69,0,0,1,1.25.152c.051.017.118.034.169.051a2.675,2.675,0,0,1,.794.388,2.931,2.931,0,0,1,.692.675,2.616,2.616,0,0,1,.405.878,4.889,4.889,0,0,1,.152,1.013,5.164,5.164,0,0,1-.1,1.115,7.026,7.026,0,0,1-.642,1.959,5.693,5.693,0,0,1-1.115,1.537,4.824,4.824,0,0,1-1.57,1.013,5.517,5.517,0,0,1-1.942.338h0a4.407,4.407,0,0,1-1.79-.321h0a1.551,1.551,0,0,1-.236-.118,2.488,2.488,0,0,1-.929-.844h0a2.6,2.6,0,0,1-.2-.372,1.549,1.549,0,0,1-.152-.388,4.394,4.394,0,0,1-.1-2.314h0a1.982,1.982,0,0,1,.068-.338,3.262,3.262,0,0,1,.084-.338,5.767,5.767,0,0,1,.709-1.621h0l.2-.3a3.258,3.258,0,0,1,.219-.287h0a5.2,5.2,0,0,1,1.385-1.182,5.262,5.262,0,0,1,1.233-.507,4.8,4.8,0,0,1,1.419-.186m-.237,1.064a3.761,3.761,0,0,0-1.486.27,3.05,3.05,0,0,0-1.1.81h0c-.084.1-.169.2-.253.321a3.813,3.813,0,0,0-.22.338,5.921,5.921,0,0,0-.743,2.026h0v.017h0a3.063,3.063,0,0,0-.051.388,2.481,2.481,0,0,0-.017.355h0a2.767,2.767,0,0,0,.388,1.553,1.6,1.6,0,0,0,.76.659,2.833,2.833,0,0,0,1.216.236,3.349,3.349,0,0,0,1.4-.27,3.01,3.01,0,0,0,1.115-.794h0c.084-.1.186-.2.27-.3h0a2.435,2.435,0,0,0,.236-.338,5.342,5.342,0,0,0,.777-2.026,3.235,3.235,0,0,0-.3-2.449A2.274,2.274,0,0,0,519.864,267.964Z" transform="translate(-345.686 -14.794)"/><path d="M700.156,250.6h1.385l-.051.186-.253,1.03-.034.118h-1.5l.051-.186L700,250.7l.034-.1Z" transform="translate(-499.466 -1.247)"/><path d="M686.681,268.1h1.25l-.051.186c-.338,1.148-.675,2.432-1.013,3.833-.355,1.419-.709,2.938-1.081,4.559l-.034.118H684.3l.051-.186v-.017h0c.152-.557.287-1.047.422-1.5.118-.422.236-.878.388-1.4.625-2.3,1.081-4.137,1.4-5.471l.034-.118Z" transform="translate(-486.667 -15.792)"/><path d="M706.117,275.965H704.8l.051-.186q.3-1.013.608-2.128t.608-2.178h-.034c.068-.287.152-.557.219-.844.236-.946.49-1.908.743-2.9l.017-.084.084-.017h0l.27-.068h0l.27-.051h0a14.043,14.043,0,0,1,3.141-.405,4.852,4.852,0,0,1,1.976.388,2.411,2.411,0,0,1,.743.54,2.5,2.5,0,0,1,.49.827h0l.017.051h0a1.849,1.849,0,0,1,.084.287l.051.3a5.176,5.176,0,0,1-.1,1.57h.017l-.118.473h0c-.1.371-.186.692-.27,1.013-.084.355-.186.692-.27,1s-.169.675-.27,1.081c-.1.422-.2.827-.3,1.25l-.034.118H711.42l.051-.186h0c.1-.338.186-.642.253-.929.068-.253.152-.54.253-.895.237-.895.456-1.739.659-2.55h0l.017-.051h0v-.017h0v-.017h0c.034-.169.067-.321.084-.473s.034-.287.051-.422a1.818,1.818,0,0,0-.439-1.486,2.229,2.229,0,0,0-.827-.523,3.408,3.408,0,0,0-1.148-.186,8.334,8.334,0,0,0-2.313.422l-.084.3h0l-.118.422-.473,1.756h0l-.017.051-.1.372h.1c-.084.287-.169.574-.236.861-.1.338-.186.675-.253,1h0l-.067.287-.068.3h0l-.456,1.925-.034.118h-.135Z" transform="translate(-503.705 -14.96)"/><path d="M454.924,250.6h1.25l-.051.186-.388,1.419c-.118.422-.2.76-.27.979h0l-.068.236-.084.321a8.284,8.284,0,0,1,2.533-.388,4.85,4.85,0,0,1,1.976.388,2.406,2.406,0,0,1,.743.54,2.5,2.5,0,0,1,.49.827h0l.017.051h0a1.84,1.84,0,0,1,.084.287l.051.3a5.177,5.177,0,0,1-.1,1.57h.017l-.118.473h0c-.1.372-.186.692-.27,1.013l-.084.338h0l-.76,2.989-.034.118h-1.368c.2-.692.388-1.385.574-2.094l.659-2.482h0l.017-.051h0v-.017h0v-.017h0c.034-.169.067-.321.084-.473s.034-.287.051-.422a1.817,1.817,0,0,0-.439-1.486,2.231,2.231,0,0,0-.827-.523,3.411,3.411,0,0,0-1.148-.186,7.083,7.083,0,0,0-2.347.54l-.051.2h0l-.118.422-1.706,6.569-.017.1v.017H451.8l.051-.186c.253-.861.507-1.739.743-2.6.219-.827.439-1.638.642-2.449h0l.169-.692h0l.186-.76c.338-1.351.709-2.955,1.148-4.83l.034-.118h.152Z" transform="translate(-293.428 -1.247)"/><path d="M566.391,268.186l-.085.3h0l-.118.422-1.3,4.779a4.09,4.09,0,0,0,2.7,1.03,2.92,2.92,0,0,0,1.875-.591,5.23,5.23,0,0,0,1.537-2.4,4.481,4.481,0,0,0,.169-2.786,2.235,2.235,0,0,0-2.178-1.2,10.144,10.144,0,0,0-2.6.439m-.979-.963h0l.287-.068h0l.27-.051h0c.456-.1.912-.186,1.334-.253.3-.051.625-.084.963-.118s.692-.034,1.064-.034c1.5,0,2.9.557,3.242,2.178a6.545,6.545,0,0,1-2.837,6.4,4.507,4.507,0,0,1-2.212.523,5.839,5.839,0,0,1-2.989-.844l-1.182,4.475H562l1.013-3.462c.287-1,.557-1.976.811-2.9.253-.946.507-1.874.743-2.8.253-.946.49-1.908.743-2.9l.017-.084Z" transform="translate(-385.019 -14.628)"/><g transform="translate(98.754 249.1)"><path class="a" d="M252.374,283.774a6.546,6.546,0,0,0,3.293-.439,3.752,3.752,0,0,0,2.263-2.837l.591-2.4h-4.306c-3.968.118-5.2,2.786-8.528,4.171a12.252,12.252,0,0,1-4.931.811c-.3-.017-1.3,0-1.587,0a3.4,3.4,0,0,0-3.546,2.634c-.371,1.976,1.148,2.921,2.972,2.972a14.484,14.484,0,0,0,2.094-.084c4-.574,5.319-4.711,11.686-4.83" transform="translate(-212.463 -273.203)"/><path class="b" d="M124.616,249.1h9.372l-.456,2.4a3.984,3.984,0,0,1-2.263,2.837,6.2,6.2,0,0,1-3.293.439c-3.31,0-5.252.54-7.211,2.026a12.123,12.123,0,0,0-4.036,6.653c-.844,3.293-.844,8.291,2.347,10.436a7.055,7.055,0,0,0,4.07,1.1,12.859,12.859,0,0,0,3.259-.439,13.467,13.467,0,0,0,2.246-.878c2.9-1.368,4.188-3.766,7.886-3.9h4.357l-.591,2.4a3.832,3.832,0,0,1-1.334,2.28,5.121,5.121,0,0,1-3.293,1.013c-.388,0-.794-.017-1.216-.017-3.85.084-5.826,1.976-8.882,3.935a20.088,20.088,0,0,1-12.108,3.681,14.69,14.69,0,0,1-11.5-4.745c-3.124-3.6-3.783-8.41-2.786-12.986a19.455,19.455,0,0,1,11.719-14.1,37.424,37.424,0,0,1,13.712-2.128" transform="translate(-98.754 -249.1)"/><path class="a" d="M240.674,330.974a6.546,6.546,0,0,0,3.293-.439,3.752,3.752,0,0,0,2.263-2.837l.591-2.4h-4.306c-3.968.118-5.2,2.786-8.528,4.171a12.253,12.253,0,0,1-4.931.811c-.3-.017-1.3,0-1.587,0a3.4,3.4,0,0,0-3.546,2.634c-.371,1.976,1.148,2.9,2.972,2.972a14.475,14.475,0,0,0,2.094-.084c3.985-.591,5.319-4.728,11.686-4.83" transform="translate(-202.739 -312.432)"/></g></g></svg>